<svg display="none" xmlns="http://www.w3.org/2000/svg">
    <symbol id="Close" viewBox="0 0 24 24" fill="none">
        <path d="M18.5297 17.47C18.8227 17.763 18.8227 18.238 18.5297 18.531C18.3837 18.677 18.1917 18.751 17.9997 18.751C17.8077 18.751 17.6158 18.678 17.4698 18.531L11.9997 13.061L6.52975 18.531C6.38375 18.677 6.19175 18.751 5.99975 18.751C5.80775 18.751 5.61575 18.678 5.46975 18.531C5.17675 18.238 5.17675 17.763 5.46975 17.47L10.9398 12L5.46975 6.53005C5.17675 6.23705 5.17675 5.76202 5.46975 5.46902C5.76275 5.17602 6.23775 5.17602 6.53075 5.46902L12.0008 10.939L17.4707 5.46902C17.7637 5.17602 18.2387 5.17602 18.5317 5.46902C18.8247 5.76202 18.8247 6.23705 18.5317 6.53005L13.0617 12L18.5297 17.47Z" fill="currentColor"/>
    </symbol>
    <symbol id="Minus" viewBox="0 0 24 24" fill="none">
        <path d="M19 12.75H5C4.586 12.75 4.25 12.414 4.25 12C4.25 11.586 4.586 11.25 5 11.25H19C19.414 11.25 19.75 11.586 19.75 12C19.75 12.414 19.414 12.75 19 12.75Z" fill="currentColor"/>
    </symbol>
    <symbol id="Settings" viewBox="0 0 24 24" fill="none" stroke="currentColor" stroke-width="2" stroke-linecap="round" stroke-linejoin="round">
        <path d="M12.22 2h-.44a2 2 0 0 0-2 2v.18a2 2 0 0 1-1 1.73l-.43.25a2 2 0 0 1-2 0l-.15-.08a2 2 0 0 0-2.73.73l-.22.38a2 2 0 0 0 .73 2.73l.15.1a2 2 0 0 1 1 1.72v.51a2 2 0 0 1-1 1.74l-.15.09a2 2 0 0 0-.73 2.73l.22.38a2 2 0 0 0 2.73.73l.15-.08a2 2 0 0 1 2 0l.43.25a2 2 0 0 1 1 1.73V20a2 2 0 0 0 2 2h.44a2 2 0 0 0 2-2v-.18a2 2 0 0 1 1-1.73l.43-.25a2 2 0 0 1 2 0l.15.08a2 2 0 0 0 2.73-.73l.22-.39a2 2 0 0 0-.73-2.73l-.15-.08a2 2 0 0 1-1-1.74v-.5a2 2 0 0 1 1-1.74l.15-.1a2 2 0 0 0 .73-2.73l-.22-.38a2 2 0 0 0-2.73-.73l-.15.08a2 2 0 0 1-2 0l-.43-.25a2 2 0 0 1-1-1.73V4a2 2 0 0 0-2-2z"/>
        <circle cx="12" cy="12" r="3"/>
    </symbol>
    <symbol id="Folder" viewBox="0 0 24 24" fill="none" stroke="currentColor" stroke-width="2" stroke-linecap="round" stroke-linejoin="round">
        <path d="M22 19a2 2 0 0 1-2 2H4a2 2 0 0 1-2-2V5a2 2 0 0 1 2-2h5l2 3h9a2 2 0 0 1 2 2z" />
    </symbol>
    <symbol id="Play" viewBox="0 0 24 24" fill="none" stroke="currentColor" stroke-width="2" stroke-linecap="round" stroke-linejoin="round">
        <polygon points="6 3 20 12 6 21 6 3" />
    </symbol>
    <symbol id="Delete" viewBox="0 0 24 24" fill="none" stroke="currentColor" stroke-width="2" stroke-linecap="round" stroke-linejoin="round">
        <path d="M3 6h18"/>
        <path d="M19 6v14a2 2 0 0 1-2 2H7a2 2 0 0 1-2-2V6m3 0V4a2 2 0 0 1 2-2h4a2 2 0 0 1 2 2v2"/>
        <line x1="10" y1="11" x2="10" y2="17"/>
        <line x1="14" y1="11" x2="14" y2="17"/>
    </symbol>
    <symbol id="Edit" viewBox="0 0 24 24" fill="none" stroke="currentColor" stroke-width="2" stroke-linecap="round" stroke-linejoin="round">
        <path d="M12 20h9"/>
        <path d="M16.5 3.5a2.121 2.121 0 0 1 3 3L7 19l-4 1 1-4L16.5 3.5z"/>
    </symbol>
    <symbol id="LyricsBubble" viewBox="0 0 24 24" fill="none" stroke="currentColor" stroke-width="2" stroke-linecap="round" stroke-linejoin="round">
        <path d="M21 15a2 2 0 0 1-2 2H7l-4 4V5a2 2 0 0 1 2-2h14a2 2 0 0 1 2 2z"/>
        <path d="M8 7h8"/>
        <path d="M8 11h8"/>
    </symbol>
    <symbol id="HelpCircle" viewBox="0 0 24 24" fill="none" stroke="currentColor" stroke-width="2" stroke-linecap="round" stroke-linejoin="round">
        <circle cx="12" cy="12" r="10"/>
        <path d="M9.09 9a3 3 0 0 1 5.83 1c0 2-3 3-3 3"/>
        <line x1="12" y1="17" x2="12.01" y2="17"/>
    </symbol>
    <symbol id="DefaultCover" viewBox="0 0 24 24" fill="none" stroke="currentColor" stroke-width="2" stroke-linecap="round" stroke-linejoin="round">
        <circle cx="12" cy="12" r="10"/>
        <circle cx="12" cy="12" r="3"/>
        <path d="M12 12V6a3 3 0 0 1 3 3"/>
    </symbol>
</svg>
