<svg display="none" xmlns="http://www.w3.org/2000/svg">
    <symbol id="AngleLeft" viewBox="0 0 24 24" fill="none">
        <path d="M14.9998 19.75C14.8078 19.75 14.6157 19.6771 14.4697 19.5301L7.46975 12.5301C7.17675 12.2371 7.17675 11.762 7.46975 11.469L14.4697 4.46902C14.7628 4.17602 15.2378 4.17602 15.5308 4.46902C15.8238 4.76202 15.8238 5.23705 15.5308 5.53005L9.06081 12L15.5308 18.47C15.8238 18.763 15.8238 19.238 15.5308 19.531C15.3838 19.677 15.1918 19.75 14.9998 19.75Z"
              fill="currentColor"/>
    </symbol>
    <symbol id="AngleRight" viewBox="0 0 24 24" fill="none">
        <path d="M8.99978 19.75C8.80778 19.75 8.61575 19.6771 8.46975 19.5301C8.17675 19.2371 8.17675 18.762 8.46975 18.469L14.9397 11.999L8.46975 5.52908C8.17675 5.23608 8.17675 4.76104 8.46975 4.46804C8.76275 4.17504 9.23779 4.17504 9.53079 4.46804L16.5308 11.468C16.8238 11.761 16.8238 12.2361 16.5308 12.5291L9.53079 19.5291C9.38379 19.6771 9.19178 19.75 8.99978 19.75Z"
              fill="currentColor"/>
    </symbol>
    <symbol id="ArrowsExpand" viewBox="0 0 24 24" fill="none">
        <path d="M21.75 3V9C21.75 9.414 21.414 9.75 21 9.75C20.586 9.75 20.25 9.414 20.25 9V4.81104L14.53 10.531C14.384 10.677 14.192 10.751 14 10.751C13.808 10.751 13.616 10.678 13.47 10.531C13.177 10.238 13.177 9.76297 13.47 9.46997L19.1899 3.75H15C14.586 3.75 14.25 3.414 14.25 3C14.25 2.586 14.586 2.25 15 2.25H21C21.098 2.25 21.1951 2.27011 21.2871 2.30811C21.4701 2.38411 21.6161 2.53011 21.6931 2.71411C21.7301 2.80511 21.75 2.902 21.75 3ZM9.46997 13.47L3.75 19.1899V15C3.75 14.586 3.414 14.25 3 14.25C2.586 14.25 2.25 14.586 2.25 15V21C2.25 21.098 2.27011 21.1951 2.30811 21.2871C2.38411 21.4701 2.52989 21.6159 2.71289 21.6919C2.80489 21.7299 2.902 21.75 3 21.75H9C9.414 21.75 9.75 21.414 9.75 21C9.75 20.586 9.414 20.25 9 20.25H4.81104L10.531 14.53C10.824 14.237 10.824 13.762 10.531 13.469C10.238 13.176 9.76297 13.177 9.46997 13.47Z" fill="currentColor"/>
    </symbol>
    <svg  id="ArrowsCompress" viewBox="0 0 24 24" fill="none">
        <path d="M21.5298 3.53005L15.8098 9.25002H19.9998C20.4138 9.25002 20.7498 9.58602 20.7498 10C20.7498 10.414 20.4138 10.75 19.9998 10.75H13.9998C13.9018 10.75 13.8047 10.7299 13.7127 10.6919C13.5297 10.6159 13.3839 10.4701 13.3079 10.2871C13.2699 10.1951 13.2498 10.098 13.2498 10V4.00002C13.2498 3.58602 13.5858 3.25002 13.9998 3.25002C14.4138 3.25002 14.7498 3.58602 14.7498 4.00002V8.18899L20.4697 2.46902C20.7627 2.17602 21.2378 2.17602 21.5308 2.46902C21.8238 2.76202 21.8228 3.23705 21.5298 3.53005ZM10.2869 13.3081C10.1949 13.2701 10.0978 13.25 9.99978 13.25H3.99978C3.58578 13.25 3.24978 13.586 3.24978 14C3.24978 14.414 3.58578 14.75 3.99978 14.75H8.18874L2.46877 20.47C2.17577 20.763 2.17577 21.238 2.46877 21.531C2.61477 21.677 2.8068 21.751 2.9988 21.751C3.1908 21.751 3.38283 21.678 3.52883 21.531L9.2488 15.8111V20C9.2488 20.414 9.5848 20.75 9.9988 20.75C10.4128 20.75 10.7488 20.414 10.7488 20V14C10.7488 13.902 10.7287 13.8049 10.6907 13.7129C10.6157 13.5299 10.4699 13.3841 10.2869 13.3081Z" fill="currentColor"/>
    </svg>

</svg>
