<svg display="none" xmlns="http://www.w3.org/2000/svg">
  <symbol id="Command" viewBox="0 0 24 24" fill="none" stroke="currentColor" stroke-width="2" stroke-linecap="round" stroke-linejoin="round">
    <polyline points="4 17 10 11 4 5" />
    <line x1="12" y1="19" x2="20" y2="19" />
  </symbol>
  <symbol id="Song" viewBox="0 0 24 24" fill="none" stroke="currentColor" stroke-width="2" stroke-linecap="round" stroke-linejoin="round">
    <path d="M9 18V5l12-2v13" />
    <circle cx="6" cy="18" r="3" />
    <circle cx="18" cy="16" r="3" />
  </symbol>
  <symbol id="Artist" viewBox="0 0 24 24" fill="none" stroke="currentColor" stroke-width="2" stroke-linecap="round" stroke-linejoin="round">
    <path d="M20 21v-2a4 4 0 0 0-4-4H8a4 4 0 0 0-4 4v2" />
    <circle cx="12" cy="7" r="4" />
  </symbol>
  <symbol  id="Album" viewBox="0 0 46 46">
    <path fill-rule="evenodd" clip-rule="evenodd" d="M43 23C43 11.9744 34.0256 3 23 3C11.9744 3 3 11.9744 3 23C3 34.0256 11.9744 43 23 43C34.0256 43 43 34.0256 43 23ZM41.0769 23C41.0769 32.9615 32.9615 41.0769 23 41.0769C13.0385 41.0769 4.92308 32.9615 4.92308 23C4.92308 13.0385 13.0385 4.92308 23 4.92308C32.9615 4.92308 41.0769 13.0385 41.0769 23ZM26.8462 23C26.8462 20.8846 25.1154 19.1538 23 19.1538C20.8846 19.1538 19.1538 20.8846 19.1538 23C19.1538 25.1154 20.8846 26.8462 23 26.8462C25.1154 26.8462 26.8462 25.1154 26.8462 23ZM24.9231 23C24.9231 24.0641 24.0641 24.9231 23 24.9231C21.9359 24.9231 21.0769 24.0641 21.0769 23C21.0769 21.9359 21.9359 21.0769 23 21.0769C24.0641 21.0769 24.9231 21.9359 24.9231 23ZM23 16.4359C26.6282 16.4359 29.5641 19.3846 29.5641 23C29.5641 26.6282 26.6154 29.5641 23 29.5641C19.3718 29.5641 16.4359 26.6154 16.4359 23C16.4359 19.3718 19.3718 16.4359 23 16.4359ZM23 28.5385C26.0513 28.5385 28.5385 26.0513 28.5385 23C28.5385 19.9487 26.0513 17.4615 23 17.4615C19.9487 17.4615 17.4615 19.9487 17.4615 23C17.4615 26.0513 19.9487 28.5385 23 28.5385ZM26.1923 7.85897C26.1923 8.41026 26.641 8.85897 27.1923 8.85897C27.7436 8.85897 28.1923 8.41026 28.1923 7.85897C28.1923 7.30769 27.7436 6.85897 27.1923 6.85897C26.641 6.85897 26.1923 7.30769 26.1923 7.85897ZM7.85897 25.7308C8.32051 25.6923 8.73077 25.9872 8.85898 26.4103C9.85898 30.0128 12.1923 33.0256 15.2692 34.9231V34.9359C15.5256 35.0897 15.7051 35.359 15.7179 35.6795C15.7564 36.2051 15.359 36.6667 14.8333 36.7179C14.5641 36.7436 14.3205 36.6538 14.1282 36.4872C10.7308 34.3462 8.15385 30.9872 7.02564 26.9744C7.02564 26.9615 7.02564 26.9487 7.01282 26.9487C7 26.8974 6.98718 26.8333 6.98718 26.7692C6.92308 26.2436 7.32051 25.7821 7.85897 25.7308ZM28.6923 9.03846C28.6923 9.41026 28.8846 9.73077 29.1795 9.89744C33.7564 12.0641 37.0385 16.5256 37.5385 21.7692C37.5769 22.2564 37.9744 22.641 38.4744 22.6538C39.0128 22.6667 39.4487 22.2436 39.4615 21.718C39.4615 21.6987 39.4583 21.6763 39.4551 21.6538C39.4519 21.6314 39.4487 21.609 39.4487 21.5897C38.8974 15.7308 35.2692 10.7308 30.1795 8.25641C30.0385 8.16667 29.8718 8.10256 29.6795 8.10256C29.141 8.08974 28.7051 8.51282 28.6923 9.03846Z" fill="currentColor"/>
  </symbol>
  <symbol id="Action" viewBox="0 0 24 24" fill="none" stroke="currentColor" stroke-width="2" stroke-linecap="round" stroke-linejoin="round">
    <polygon points="13 2 3 14 12 14 11 22 21 10 12 10 13 2" />
  </symbol>
  <symbol id="Search" viewBox="0 0 24 24" fill="none" stroke="currentColor" stroke-width="2" stroke-linecap="round" stroke-linejoin="round">
    <circle cx="11" cy="11" r="8" />
    <line x1="21" y1="21" x2="16.65" y2="16.65" />
  </symbol>

</svg>
