<svg display="none" xmlns="http://www.w3.org/2000/svg">
    <symbol id="Shuffle" viewBox="0 0 36 36">
        <path d="M20.0762 19.6699C21.2407 21.8396 22.5411 23.5098 24.5 23.5098H25.8984L25.0596 21.0938C26.5761 22.4804 29.022 23.7827 30.999 24.5469C29.0221 25.311 26.5761 26.6133 25.0596 28L25.8984 25.585H24.5C21.9815 25.585 20.3112 23.9245 18.9932 21.8115L20.0762 19.6699ZM25.9082 8C27.2081 9.18849 29.311 10.3015 30.999 10.9619C29.3109 11.6129 27.2081 12.7362 25.9082 13.9248L26.5762 12H24.5C21.864 12 20.4194 15.0188 18.8848 18.2168C17.2327 21.6695 15.3636 25.5847 11.5 25.585H5V23.5098H11.5C14.1359 23.5095 15.5896 20.49 17.1152 17.292C18.7672 13.8393 20.6363 9.9248 24.5 9.9248H26.5762L25.9082 8ZM11.5 9.9248C14.0095 9.92494 15.6801 11.576 16.998 13.6797L15.9141 15.8115C14.7496 13.6513 13.4498 12.0002 11.5 12H5V9.9248H11.5Z"
              fill="currentColor"/>
    </symbol>
    <symbol id="Loop" viewBox="0 0 36 36">
        <path d="M31 18C31 22.4293 27.6415 26.0273 23.5068 26.0273H11.3379L12.0059 28C10.7059 26.7815 8.60224 25.6399 6.91406 24.9629C8.60222 24.2859 10.7059 23.1453 12.0059 21.9268L11.3379 23.8994H23.5068C26.5401 23.8994 29.0137 21.2495 29.0137 18H31ZM23.9941 8C25.2941 9.21851 27.3978 10.3698 29.0859 11.0371C27.3978 11.7141 25.2941 12.8557 23.9941 14.0742L24.6621 12.1006H12.4932C9.45994 12.1006 6.98641 14.741 6.98633 18H5C5.00009 13.5708 8.35856 9.97367 12.4932 9.97363H24.6621L23.9941 8Z"
              fill="currentColor"/>
    </symbol>
    <symbol id="LoopBadge" viewBox="0 0 36 36">
        <path d="M31 17C31 21.8889 27.6897 25.7998 23.5518 25.7998H11.4482L12.0693 28C10.828 26.6556 8.65516 25.4335 7 24.7002C8.65517 23.9669 10.7245 22.7448 12.0693 21.4004L11.4482 23.5996H23.5518C26.6552 23.5996 29.1376 20.6667 29.0342 17H31ZM20.1396 10V12.1113H12.1982C9.3551 12.1113 7.00195 14.7778 7.00195 18H5.13965C5.13965 13.5556 8.27667 10 12.1982 10H20.1396Z"
              fill="currentColor"/>
    </symbol>
    <symbol id="Prev" viewBox="0 0 36 36">
        <path d="M12.087 8V16.6984L26 8V28L12.087 19.3016V28H10V8H12.087Z" fill="currentColor"/>
    </symbol>

    <symbol id="Next" viewBox="0 0 36 36">
        <path d="M23.913 8V16.6984L10 8V28L23.913 19.3016V28H26V8H23.913Z" fill="currentColor"/>
    </symbol>
  <symbol id="NowPlaying" viewBox="0 0 24 24" fill="none" stroke="currentColor" stroke-width="2" stroke-linecap="round" stroke-linejoin="round">
    <line x1="6" y1="18" x2="6" y2="12" />
    <line x1="10" y1="18" x2="10" y2="6" />
    <line x1="14" y1="18" x2="14" y2="10" />
    <line x1="18" y1="18" x2="18" y2="8" />
  </symbol>
</svg>
