<svg display="none" xmlns="http://www.w3.org/2000/svg">
    <symbol id="VMute" viewBox="0 0 46 46" fill="none">
        <path d="M21.3623 7L11.2923 17.1205H3V29.4125H11.5145L21.3623 39.3108V7Z" fill="currentColor"/>
        <path fill-rule="evenodd" clip-rule="evenodd"
              d="M23.4095 16.4387C22.8635 17.0237 22.8635 17.9721 23.4095 18.5571L28.0228 23.5L23.4095 28.4429C22.8635 29.0279 22.8635 29.9763 23.4095 30.5613C23.9555 31.1462 24.8407 31.1462 25.3866 30.5613L30 25.6184L34.6134 30.5613C35.1594 31.1462 36.0445 31.1462 36.5905 30.5613C37.1365 29.9763 37.1365 29.0279 36.5905 28.4429L31.9772 23.5L36.5905 18.5571C37.1365 17.9721 37.1365 17.0237 36.5905 16.4387C36.0445 15.8538 35.1594 15.8538 34.6134 16.4387L30 21.3816L25.3866 16.4387C24.8407 15.8538 23.9555 15.8538 23.4095 16.4387Z"
              fill="currentColor"/>
    </symbol>
    <symbol id="VMin" viewBox="0 0 46 46" fill="none" >
        <path d="M21.1696 7L11.2053 17.02H3V29.19H11.4252L21.1696 38.99V7Z" fill="currentColor"/>
        <path d="M25.5 22.4463C25.5 20.5521 25.0605 19.4641 24.7168 18.8955C24.5417 18.606 24.3791 18.4311 24.2842 18.3418C24.2364 18.2969 24.2045 18.2724 24.1953 18.2657C24.191 18.2625 24.1919 18.2638 24.1992 18.2686C24.203 18.271 24.2088 18.274 24.2158 18.2784C24.2193 18.2805 24.2232 18.2835 24.2275 18.2862C24.2298 18.2875 24.2329 18.2886 24.2353 18.2901C24.2363 18.2907 24.2372 18.2914 24.2383 18.292L24.2402 18.294L24.2412 18.293C23.5277 17.8743 23.2875 16.9576 23.7051 16.2432C24.1232 15.5283 25.0418 15.2872 25.7568 15.7051L25.1133 16.8067C25.7575 15.7054 25.7588 15.7055 25.7598 15.7061L25.7617 15.708C25.7629 15.7088 25.7643 15.7092 25.7656 15.71C25.7686 15.7117 25.7722 15.7139 25.7754 15.7159C25.7817 15.7196 25.7887 15.7241 25.7959 15.7286C25.8105 15.7376 25.8274 15.7478 25.8457 15.7598C25.8825 15.784 25.9265 15.8147 25.9766 15.8516C26.0767 15.9255 26.2013 16.0259 26.3408 16.1573C26.6209 16.4209 26.9583 16.8064 27.2832 17.3438C27.9394 18.4292 28.5 20.0647 28.5 22.4463C28.4999 24.8327 27.94 26.487 27.2939 27.5889C26.9739 28.1347 26.6417 28.5287 26.3682 28.7998C26.2317 28.9351 26.1108 29.0398 26.0137 29.1162C25.9652 29.1544 25.9221 29.185 25.8867 29.21C25.8691 29.2224 25.8538 29.2339 25.8398 29.2432C25.833 29.2478 25.8262 29.252 25.8203 29.2559C25.8174 29.2578 25.8142 29.26 25.8115 29.2618C25.8101 29.2626 25.808 29.2638 25.8066 29.2647L25.8047 29.2657C25.8014 29.2624 25.7578 29.1953 25 28L25.8037 29.2666C25.1042 29.7102 24.1771 29.503 23.7334 28.8037C23.2901 28.1046 23.4969 27.1784 24.1953 26.7344L24.1894 26.7373C24.1872 26.7388 24.1847 26.7409 24.1826 26.7422C24.1787 26.7448 24.175 26.747 24.1719 26.7491L24.1582 26.7588C24.1704 26.7492 24.2058 26.7206 24.2568 26.67C24.3583 26.5694 24.5261 26.3783 24.706 26.0713C25.0599 25.4678 25.4999 24.3453 25.5 22.4463Z" fill="currentColor"/>
    </symbol>
    <symbol id="VMedium" viewBox="0 0 46 46" fill="none">
        <path d="M21.1696 7L11.2053 17.02H3V29.19H11.4252L21.1696 38.99V7Z" fill="currentColor"/>
        <path d="M33.4004 22.9902C33.4004 18.9804 32.2689 16.5465 31.2412 15.1465C30.7206 14.4373 30.2093 13.9706 29.8467 13.6895C29.6652 13.5488 29.5208 13.4546 29.4316 13.4004C29.3871 13.3734 29.3564 13.3565 29.3418 13.3486C29.3372 13.3462 29.3343 13.3444 29.333 13.3437C29.3338 13.3442 29.3358 13.3437 29.3379 13.3447C28.6 12.9815 28.2908 12.0911 28.6484 11.3486C29.008 10.6025 29.9051 10.289 30.6514 10.6484L30.0459 11.9043C30.6508 10.6485 30.6524 10.6489 30.6533 10.6494L30.6592 10.6523C30.6623 10.6539 30.6662 10.6564 30.6699 10.6582C30.6772 10.6618 30.6857 10.666 30.6953 10.6709C30.7149 10.6809 30.7399 10.6935 30.7686 10.709C30.8257 10.7398 30.9001 10.7818 30.9893 10.8359C31.168 10.9445 31.4066 11.1029 31.6846 11.3184C32.2407 11.7495 32.9549 12.4117 33.6592 13.3711C35.0815 15.3086 36.4004 18.3703 36.4004 22.9902C36.4003 27.6098 35.0817 30.7154 33.6719 32.6963C32.9733 33.6778 32.2659 34.3644 31.7158 34.8145C31.4408 35.0394 31.2046 35.2057 31.0283 35.3203C30.9402 35.3776 30.8666 35.4224 30.8105 35.4551C30.7828 35.4713 30.7592 35.4846 30.7402 35.4951C30.7307 35.5004 30.722 35.5049 30.7148 35.5088C30.7114 35.5106 30.708 35.5121 30.7051 35.5137C30.7036 35.5145 30.7015 35.5159 30.7002 35.5166L30.6982 35.5176C30.6962 35.5159 30.6682 35.4645 30 34.1904L30.6963 35.5186C29.9628 35.903 29.0566 35.6201 28.6719 34.8867C28.2873 34.1536 28.5692 33.2475 29.3018 32.8623C29.3181 32.8527 29.349 32.834 29.3926 32.8057C29.4843 32.746 29.6311 32.643 29.8154 32.4922C30.184 32.1907 30.7013 31.6954 31.2275 30.9561C32.2677 29.4945 33.4003 27.0003 33.4004 22.9902ZM29.2881 32.8701C29.2884 32.87 29.2896 32.8685 29.292 32.8672C29.2932 32.8665 29.2951 32.8661 29.2969 32.8652L29.2881 32.8701Z" fill="currentColor"/>
        <path d="M26.5 22.4463C26.5 20.5521 26.0605 19.4641 25.7168 18.8955C25.5417 18.606 25.3791 18.4311 25.2842 18.3418C25.2364 18.2969 25.2045 18.2724 25.1953 18.2657C25.191 18.2625 25.1919 18.2638 25.1992 18.2686C25.203 18.271 25.2088 18.274 25.2158 18.2784C25.2193 18.2805 25.2232 18.2835 25.2275 18.2862C25.2298 18.2875 25.2329 18.2886 25.2353 18.2901C25.2363 18.2907 25.2372 18.2914 25.2383 18.292L25.2402 18.294L25.2412 18.293C24.5277 17.8743 24.2875 16.9576 24.7051 16.2432C25.1232 15.5283 26.0418 15.2872 26.7568 15.7051L26.1133 16.8067C26.7575 15.7054 26.7588 15.7055 26.7598 15.7061L26.7617 15.708C26.7629 15.7088 26.7643 15.7092 26.7656 15.71C26.7686 15.7117 26.7722 15.7139 26.7754 15.7159C26.7817 15.7196 26.7887 15.7241 26.7959 15.7286C26.8105 15.7376 26.8274 15.7478 26.8457 15.7598C26.8825 15.784 26.9265 15.8147 26.9766 15.8516C27.0767 15.9255 27.2013 16.0259 27.3408 16.1573C27.6209 16.4209 27.9583 16.8064 28.2832 17.3438C28.9394 18.4292 29.5 20.0647 29.5 22.4463C29.4999 24.8327 28.94 26.487 28.2939 27.5889C27.9739 28.1347 27.6417 28.5287 27.3682 28.7998C27.2317 28.9351 27.1108 29.0398 27.0137 29.1162C26.9652 29.1544 26.9221 29.185 26.8867 29.21C26.8691 29.2224 26.8538 29.2339 26.8398 29.2432C26.833 29.2478 26.8262 29.252 26.8203 29.2559C26.8174 29.2578 26.8142 29.26 26.8115 29.2618C26.8101 29.2626 26.808 29.2638 26.8066 29.2647L26.8047 29.2657C26.8014 29.2624 26.7578 29.1953 26 28L26.8037 29.2666C26.1042 29.7102 25.1771 29.503 24.7334 28.8037C24.2901 28.1046 24.4969 27.1784 25.1953 26.7344L25.1894 26.7373C25.1872 26.7388 25.1847 26.7409 25.1826 26.7422C25.1787 26.7448 25.175 26.747 25.1719 26.7491L25.1582 26.7588C25.1704 26.7492 25.2058 26.7206 25.2568 26.67C25.3583 26.5694 25.5261 26.3783 25.706 26.0713C26.0599 25.4678 26.4999 24.3453 26.5 22.4463Z" fill="currentColor"/>
    </symbol>

    <symbol id="VMax" viewBox="0 0 46 46" fill="none">
        <path d="M21.1696 7L11.2053 17.02H3V29.19H11.4252L21.1696 38.99V7Z" fill="currentColor"/>
        <path d="M32.6191 6.41392C32.9427 5.6514 33.8233 5.29553 34.5859 5.619L34.0068 6.98326C34.5856 5.61887 34.5869 5.61957 34.5879 5.61997L34.5898 5.62095C34.5912 5.62153 34.5932 5.62223 34.5947 5.6229C34.5979 5.62427 34.6014 5.62603 34.6055 5.62779C34.6141 5.63157 34.6252 5.63586 34.6377 5.64146C34.6626 5.65265 34.695 5.66765 34.7344 5.68638C34.8133 5.72395 34.9206 5.77734 35.0518 5.84751C35.3141 5.9879 35.6737 6.19755 36.0977 6.48716C36.9451 7.06612 38.0547 7.96995 39.1572 9.29478C41.3817 11.9677 43.5058 16.2673 43.5 22.8417L43.4941 23.452C43.3675 29.6907 41.308 33.8743 39.168 36.5311C38.072 37.8917 36.9703 38.8342 36.1289 39.4422C35.708 39.7464 35.3508 39.9677 35.0908 40.117C34.9608 40.1917 34.8544 40.2487 34.7764 40.2889C34.7375 40.3089 34.7051 40.3248 34.6807 40.3368C34.6688 40.3426 34.6587 40.3475 34.6504 40.3514C34.6462 40.3534 34.6419 40.3557 34.6387 40.3573C34.6371 40.358 34.6351 40.3586 34.6338 40.3592L34.6318 40.3602C34.6297 40.3579 34.6013 40.2982 34 38.9999L34.6309 40.3612C33.8792 40.7093 32.9869 40.3822 32.6387 39.6307C32.2906 38.8791 32.6176 37.9868 33.3691 37.6385C33.376 37.6351 33.3878 37.6299 33.4033 37.6219C33.4425 37.6017 33.5081 37.5664 33.5967 37.5155C33.7741 37.4136 34.0422 37.2483 34.3711 37.0106C35.0297 36.5347 35.9281 35.7715 36.832 34.6493C38.6228 32.4259 40.4999 28.7167 40.5 22.8417V22.8397C40.5053 16.9715 38.6298 13.3505 36.8516 11.2137C35.9528 10.1337 35.0596 9.41077 34.4053 8.96372C34.0786 8.74053 33.8124 8.58708 33.6367 8.49302C33.5489 8.44603 33.4837 8.41362 33.4453 8.39536C33.4262 8.38625 33.4135 8.38018 33.4082 8.37779V8.37681C32.6501 8.05106 32.2966 7.17439 32.6191 6.41392ZM33.4082 8.37681C33.4097 8.37743 33.4107 8.37912 33.4121 8.37974H33.4111C33.4102 8.37934 33.4089 8.37907 33.4082 8.37876V8.37681Z" fill="currentColor"/>
        <path d="M33.4004 22.9902C33.4004 18.9804 32.2689 16.5465 31.2412 15.1465C30.7206 14.4373 30.2093 13.9706 29.8467 13.6895C29.6652 13.5488 29.5208 13.4546 29.4316 13.4004C29.3871 13.3734 29.3564 13.3565 29.3418 13.3486C29.3372 13.3462 29.3343 13.3444 29.333 13.3437C29.3338 13.3442 29.3358 13.3437 29.3379 13.3447C28.6 12.9815 28.2908 12.0911 28.6484 11.3486C29.008 10.6025 29.9051 10.289 30.6514 10.6484L30.0459 11.9043C30.6508 10.6485 30.6524 10.6489 30.6533 10.6494L30.6592 10.6523C30.6623 10.6539 30.6662 10.6564 30.6699 10.6582C30.6772 10.6618 30.6857 10.666 30.6953 10.6709C30.7149 10.6809 30.7399 10.6935 30.7686 10.709C30.8257 10.7398 30.9001 10.7818 30.9893 10.8359C31.168 10.9445 31.4066 11.1029 31.6846 11.3184C32.2407 11.7495 32.9549 12.4117 33.6592 13.3711C35.0815 15.3086 36.4004 18.3703 36.4004 22.9902C36.4003 27.6098 35.0817 30.7154 33.6719 32.6963C32.9733 33.6778 32.2659 34.3644 31.7158 34.8145C31.4408 35.0394 31.2046 35.2057 31.0283 35.3203C30.9402 35.3776 30.8666 35.4224 30.8105 35.4551C30.7828 35.4713 30.7592 35.4846 30.7402 35.4951C30.7307 35.5004 30.722 35.5049 30.7148 35.5088C30.7114 35.5106 30.708 35.5121 30.7051 35.5137C30.7036 35.5145 30.7015 35.5159 30.7002 35.5166L30.6982 35.5176C30.6962 35.5159 30.6682 35.4645 30 34.1904L30.6963 35.5186C29.9628 35.903 29.0566 35.6201 28.6719 34.8867C28.2873 34.1536 28.5692 33.2475 29.3018 32.8623C29.3181 32.8527 29.349 32.834 29.3926 32.8057C29.4843 32.746 29.6311 32.643 29.8154 32.4922C30.184 32.1907 30.7013 31.6954 31.2275 30.9561C32.2677 29.4945 33.4003 27.0003 33.4004 22.9902ZM29.2881 32.8701C29.2884 32.87 29.2896 32.8685 29.292 32.8672C29.2932 32.8665 29.2951 32.8661 29.2969 32.8652L29.2881 32.8701Z" fill="currentColor"/>
        <path d="M26.5 22.4463C26.5 20.5521 26.0605 19.4641 25.7168 18.8955C25.5417 18.606 25.3791 18.4311 25.2842 18.3418C25.2364 18.2969 25.2045 18.2724 25.1953 18.2657C25.191 18.2625 25.1919 18.2638 25.1992 18.2686C25.203 18.271 25.2088 18.274 25.2158 18.2784C25.2193 18.2805 25.2232 18.2835 25.2275 18.2862C25.2298 18.2875 25.2329 18.2886 25.2353 18.2901C25.2363 18.2907 25.2372 18.2914 25.2383 18.292L25.2402 18.294L25.2412 18.293C24.5277 17.8743 24.2875 16.9576 24.7051 16.2432C25.1232 15.5283 26.0418 15.2872 26.7568 15.7051L26.1133 16.8067C26.7575 15.7054 26.7588 15.7055 26.7598 15.7061L26.7617 15.708C26.7629 15.7088 26.7643 15.7092 26.7656 15.71C26.7686 15.7117 26.7722 15.7139 26.7754 15.7159C26.7817 15.7196 26.7887 15.7241 26.7959 15.7286C26.8105 15.7376 26.8274 15.7478 26.8457 15.7598C26.8825 15.784 26.9265 15.8147 26.9766 15.8516C27.0767 15.9255 27.2013 16.0259 27.3408 16.1573C27.6209 16.4209 27.9583 16.8064 28.2832 17.3438C28.9394 18.4292 29.5 20.0647 29.5 22.4463C29.4999 24.8327 28.94 26.487 28.2939 27.5889C27.9739 28.1347 27.6417 28.5287 27.3682 28.7998C27.2317 28.9351 27.1108 29.0398 27.0137 29.1162C26.9652 29.1544 26.9221 29.185 26.8867 29.21C26.8691 29.2224 26.8538 29.2339 26.8398 29.2432C26.833 29.2478 26.8262 29.252 26.8203 29.2559C26.8174 29.2578 26.8142 29.26 26.8115 29.2618C26.8101 29.2626 26.808 29.2638 26.8066 29.2647L26.8047 29.2657C26.8014 29.2624 26.7578 29.1953 26 28L26.8037 29.2666C26.1042 29.7102 25.1771 29.503 24.7334 28.8037C24.2901 28.1046 24.4969 27.1784 25.1953 26.7344L25.1894 26.7373C25.1872 26.7388 25.1847 26.7409 25.1826 26.7422C25.1787 26.7448 25.175 26.747 25.1719 26.7491L25.1582 26.7588C25.1704 26.7492 25.2058 26.7206 25.2568 26.67C25.3583 26.5694 25.5261 26.3783 25.706 26.0713C26.0599 25.4678 26.4999 24.3453 26.5 22.4463Z" fill="currentColor"/>
    </symbol>
</svg>
